<svg width="62" height="62" viewBox="0 0 62 62" fill="none" xmlns="http://www.w3.org/2000/svg">
<path d="M49.0833 7.75C50.4536 7.75 51.7678 8.29434 52.7367 9.26328C53.7057 10.2322 54.25 11.5464 54.25 12.9167V49.0833C54.25 50.4536 53.7057 51.7678 52.7367 52.7367C51.7678 53.7057 50.4536 54.25 49.0833 54.25H12.9167C11.5464 54.25 10.2322 53.7057 9.26328 52.7367C8.29434 51.7678 7.75 50.4536 7.75 49.0833V12.9167C7.75 11.5464 8.29434 10.2322 9.26328 9.26328C10.2322 8.29434 11.5464 7.75 12.9167 7.75H49.0833ZM47.7917 47.7917V34.1C47.7917 31.8664 46.9044 29.7243 45.325 28.145C43.7456 26.5656 41.6036 25.6783 39.37 25.6783C37.1742 25.6783 34.6167 27.0217 33.3767 29.0367V26.1692H26.1692V47.7917H33.3767V35.0558C33.3767 33.0667 34.9783 31.4392 36.9675 31.4392C37.9267 31.4392 38.8466 31.8202 39.5249 32.4985C40.2031 33.1767 40.5842 34.0966 40.5842 35.0558V47.7917H47.7917ZM17.7733 22.1133C18.9244 22.1133 20.0283 21.6561 20.8422 20.8422C21.6561 20.0283 22.1133 18.9244 22.1133 17.7733C22.1133 15.3708 20.1758 13.4075 17.7733 13.4075C16.6154 13.4075 15.505 13.8675 14.6862 14.6862C13.8675 15.505 13.4075 16.6154 13.4075 17.7733C13.4075 20.1758 15.3708 22.1133 17.7733 22.1133ZM21.3642 47.7917V26.1692H14.2083V47.7917H21.3642Z" fill="white"/>
</svg>
