<svg width="64" height="50" viewBox="0 0 64 50" fill="none" xmlns="http://www.w3.org/2000/svg">
<path d="M56.7136 7.27512C54.4097 4.96039 51.6659 3.12504 48.642 1.87604C45.6181 0.627029 42.3746 -0.0106579 39.1005 0.000134737C25.3819 0.000134737 14.201 11.1251 14.201 24.7751C14.201 29.1501 15.3568 33.4001 17.5176 37.15L14 50L27.191 46.55C30.8342 48.525 34.9296 49.575 39.1005 49.575C52.8191 49.575 64 38.45 64 24.8001C64 18.1751 61.4121 11.9501 56.7136 7.27512ZM39.1005 45.375C35.3819 45.375 31.7387 44.375 28.5477 42.5L27.794 42.05L19.9548 44.1L22.0402 36.5L21.5377 35.725C19.4712 32.4427 18.3742 28.6482 18.3719 24.7751C18.3719 13.4251 27.6683 4.17512 39.0754 4.17512C44.603 4.17512 49.804 6.32512 53.6985 10.2251C55.6272 12.1348 57.1556 14.4065 58.195 16.9084C59.2345 19.4104 59.7643 22.0928 59.7538 24.8001C59.804 36.15 50.5075 45.375 39.1005 45.375ZM50.4573 29.9751C49.8291 29.6751 46.7638 28.1751 46.2111 27.9501C45.6332 27.7501 45.2312 27.6501 44.804 28.2501C44.3769 28.8751 43.196 30.2751 42.8442 30.6751C42.4925 31.1001 42.1156 31.1501 41.4874 30.8251C40.8593 30.5251 38.8492 29.8501 36.4874 27.7501C34.6281 26.1001 33.397 24.0751 33.0201 23.4501C32.6683 22.8251 32.9698 22.5001 33.2965 22.1751C33.5729 21.9001 33.9246 21.4501 34.2261 21.1001C34.5276 20.7501 34.6533 20.4751 34.8543 20.0751C35.0553 19.6501 34.9548 19.3001 34.804 19.0001C34.6533 18.7001 33.397 15.6501 32.8945 14.4001C32.392 13.2001 31.8643 13.3501 31.4874 13.3251H30.2814C29.8543 13.3251 29.201 13.4751 28.6231 14.1001C28.0704 14.7251 26.4623 16.2251 26.4623 19.2751C26.4623 22.3251 28.6985 25.2751 29 25.6751C29.3015 26.1001 33.397 32.3501 39.6281 35.025C41.1106 35.675 42.2663 36.05 43.1709 36.325C44.6533 36.8 46.0101 36.725 47.0905 36.575C48.2965 36.4 50.7839 35.075 51.2864 33.625C51.8141 32.175 51.8141 30.9501 51.6382 30.6751C51.4623 30.4001 51.0854 30.2751 50.4573 29.9751Z" fill="white"/>
</svg>
